<?xml version="1.0" encoding="UTF-8" standalone="no"?>
<!-- Created with Inkscape (http://www.inkscape.org/) -->

<svg
   width="52.985672mm"
   height="34.395821mm"
   viewBox="0 0 52.985672 34.395821"
   version="1.1"
   id="svg909"
   inkscape:version="0.92.4 (5da689c313, 2019-01-14)"
   sodipodi:docname="logos.svg"
   xmlns:inkscape="http://www.inkscape.org/namespaces/inkscape"
   xmlns:sodipodi="http://sodipodi.sourceforge.net/DTD/sodipodi-0.dtd"
   xmlns="http://www.w3.org/2000/svg"
   xmlns:svg="http://www.w3.org/2000/svg"
   xmlns:rdf="http://www.w3.org/1999/02/22-rdf-syntax-ns#"
   xmlns:cc="http://creativecommons.org/ns#"
   xmlns:dc="http://purl.org/dc/elements/1.1/">
  <defs
     id="defs903" />
  <sodipodi:namedview
     id="base"
     pagecolor="#ffffff"
     bordercolor="#666666"
     borderopacity="1.0"
     inkscape:pageopacity="0.0"
     inkscape:pageshadow="2"
     inkscape:zoom="0.70710678"
     inkscape:cx="-544.61352"
     inkscape:cy="550.03009"
     inkscape:document-units="mm"
     inkscape:current-layer="layer1"
     showgrid="true"
     inkscape:window-width="3368"
     inkscape:window-height="1376"
     inkscape:window-x="72"
     inkscape:window-y="27"
     inkscape:window-maximized="1"
     showguides="true"
     objecttolerance="10000"
     guidetolerance="10000"
     inkscape:showpageshadow="2"
     inkscape:pagecheckerboard="0"
     inkscape:deskcolor="#d1d1d1">
    <inkscape:grid
       type="xygrid"
       id="grid859"
       spacingx="1.3229167"
       spacingy="1.3229167" />
  </sodipodi:namedview>
  <metadata
     id="metadata906">
    <rdf:RDF>
      <cc:Work
         rdf:about="">
        <dc:format>image/svg+xml</dc:format>
        <dc:type
           rdf:resource="http://purl.org/dc/dcmitype/StillImage" />
        <dc:title />
      </cc:Work>
    </rdf:RDF>
  </metadata>
  <g
     inkscape:label="Layer 1"
     inkscape:groupmode="layer"
     id="layer1"
     transform="translate(-112.44791,-91.928289)">
    <rect
       style="opacity:1;fill:#494949;fill-opacity:1;stroke:none;stroke-width:4.67133;stroke-linecap:round;stroke-linejoin:round;stroke-miterlimit:4;stroke-dasharray:none;stroke-dashoffset:0;stroke-opacity:1;paint-order:markers fill stroke"
       id="rect4696"
       width="105.83332"
       height="297.65625"
       x="105.83334"
       y="-0.65625751" />
    <path
       style="fill:#ffffff;fill-opacity:1;stroke-width:0.209952"
       d="M 112.44792,109.13668 V 91.947916 l 8.31394,10e-4 c 7.61026,0.001 8.4644,0.0375 10.09176,0.42697 5.47001,1.3091 9.47693,5.03088 11.29132,10.487774 0.3468,1.04302 0.63054,2.1021 0.63054,2.35355 v 0.4572 l 6.22237,-0.0669 6.22238,-0.0669 0.99505,-0.58936 c 1.23319,-0.73041 1.65576,-1.36088 1.7791,-2.65434 0.16646,-1.74686 -1.09266,-3.520814 -2.96749,-4.180534 -0.91296,-0.32125 -1.83753,-0.37353 -6.60421,-0.37353 h -5.54262 l -0.10457,2.00212 -0.10459,2.002134 -0.37223,-0.9156 c -0.86821,-2.135594 -2.69147,-4.529534 -4.70087,-6.172294 -1.26227,-1.03193 -1.32425,-1.12546 -1.26444,-1.908 l 0.0628,-0.82292 9.55094,0.0133 c 8.77378,0.0133 9.68128,0.047 11.15312,0.42634 2.04066,0.52589 3.50304,1.31776 4.77254,2.58423 2.3906,2.38502 3.25362,6.779104 1.94926,9.924744 -0.41697,1.00551 -1.9149,2.60645 -2.92423,3.1253 l -0.825,0.42409 1.12934,0.62202 c 1.49711,0.82461 2.32163,1.66032 3.11187,3.15427 0.74744,1.41305 1.12165,2.93581 1.11958,4.50691 -0.002,1.23914 -0.23733,2.50835 -0.70859,3.77752 -0.97048,2.61364 -3.75438,4.65452 -7.37632,5.40772 -1.71838,0.35731 -2.9199,0.39941 -11.4751,0.40186 l -9.55576,0.002 0.0119,-0.86662 c 0.009,-0.62746 0.13486,-0.96106 0.45749,-1.20884 0.24509,-0.18826 1.24734,-1.14968 2.22722,-2.13656 1.37968,-1.38957 2.00331,-2.22227 2.7644,-3.69112 l 0.98282,-1.89678 0.007,1.96641 0.007,1.96633 6.01322,-0.0779 c 5.67654,-0.0735 6.08073,-0.10506 7.21912,-0.56016 2.73898,-1.09531 3.69802,-2.9607 2.68165,-5.21586 -0.45436,-1.00816 -1.31648,-1.7263 -3.05977,-2.54885 l -1.24607,-0.58795 h -5.61391 -5.6139 l -0.58158,2.32239 c -1.56165,6.23616 -5.19957,10.14944 -11.09314,11.93294 -1.49755,0.45316 -1.96455,0.47815 -10.30091,0.55129 l -8.73225,0.0768 z m 15.93133,10.75563 c 2.08211,-0.40145 3.61542,-1.12756 4.95417,-2.34616 2.1583,-1.96458 3.15454,-4.26985 3.32234,-7.68767 0.28512,-5.80753 -2.50918,-10.155154 -7.38647,-11.492464 -1.35801,-0.37237 -8.24775,-0.68228 -9.57794,-0.430809 l -0.75961,0.14368 v 11.054863 11.05485 h 3.95557 c 2.52958,0 4.50941,-0.1066 5.49194,-0.2962 z"
       id="path1615-3-6-9"
       inkscape:connector-curvature="0"
       sodipodi:nodetypes="cccccsccccccscccccccccccccccsccccccccccccccsccccccccccscccccscc"
       inkscape:export-filename="../486834f9/path1615-3-6-9.svg"
       inkscape:export-xdpi="44.310001"
       inkscape:export-ydpi="44.310001" />
  </g>
</svg>
