<?xml version="1.0" encoding="UTF-8" standalone="no"?>
<!-- Created with Inkscape (http://www.inkscape.org/) -->

<svg
   width="52.985729mm"
   height="34.395767mm"
   viewBox="0 0 52.985729 34.395767"
   version="1.1"
   id="svg909"
   inkscape:version="0.92.4 (5da689c313, 2019-01-14)"
   sodipodi:docname="logos.svg"
   xmlns:inkscape="http://www.inkscape.org/namespaces/inkscape"
   xmlns:sodipodi="http://sodipodi.sourceforge.net/DTD/sodipodi-0.dtd"
   xmlns="http://www.w3.org/2000/svg"
   xmlns:svg="http://www.w3.org/2000/svg"
   xmlns:rdf="http://www.w3.org/1999/02/22-rdf-syntax-ns#"
   xmlns:cc="http://creativecommons.org/ns#"
   xmlns:dc="http://purl.org/dc/elements/1.1/">
  <defs
     id="defs903" />
  <sodipodi:namedview
     id="base"
     pagecolor="#ffffff"
     bordercolor="#666666"
     borderopacity="1.0"
     inkscape:pageopacity="0.0"
     inkscape:pageshadow="2"
     inkscape:zoom="0.70710678"
     inkscape:cx="-544.61352"
     inkscape:cy="550.03009"
     inkscape:document-units="mm"
     inkscape:current-layer="layer1"
     showgrid="true"
     inkscape:window-width="3368"
     inkscape:window-height="1376"
     inkscape:window-x="72"
     inkscape:window-y="27"
     inkscape:window-maximized="1"
     showguides="true"
     objecttolerance="10000"
     guidetolerance="10000"
     inkscape:showpageshadow="2"
     inkscape:pagecheckerboard="0"
     inkscape:deskcolor="#d1d1d1">
    <inkscape:grid
       type="xygrid"
       id="grid859"
       spacingx="1.3229167"
       spacingy="1.3229167" />
  </sodipodi:namedview>
  <metadata
     id="metadata906">
    <rdf:RDF>
      <cc:Work
         rdf:about="">
        <dc:format>image/svg+xml</dc:format>
        <dc:type
           rdf:resource="http://purl.org/dc/dcmitype/StillImage" />
        <dc:title />
      </cc:Work>
    </rdf:RDF>
  </metadata>
  <g
     inkscape:label="Layer 1"
     inkscape:groupmode="layer"
     id="layer1"
     transform="translate(-6.6145646,-91.92854)">
    <path
       style="fill:#494949;fill-opacity:1;stroke-width:0.209952"
       d="M 6.6145835,109.13667 V 91.947912 l 8.3139385,0.0012 c 7.610262,0.0012 8.464399,0.03752 10.09176,0.426968 5.470009,1.309107 9.476936,5.030888 11.291327,10.48777 0.346797,1.04303 0.630534,2.1021 0.630534,2.35355 v 0.4572 l 6.222373,-0.0669 6.222375,-0.0669 0.995053,-0.58936 c 1.233186,-0.73041 1.65576,-1.36088 1.779101,-2.65434 0.166463,-1.74686 -1.09266,-3.520808 -2.967487,-4.180526 -0.912964,-0.321252 -1.837534,-0.373535 -6.604217,-0.373535 h -5.542622 l -0.104566,2.002127 -0.104587,2.002124 -0.372237,-0.9156 C 35.597126,98.69616 33.773863,96.302222 31.764462,94.659462 30.502192,93.627532 30.440218,93.534 30.500026,92.751463 l 0.06284,-0.822926 9.55094,0.01325 c 8.773777,0.01325 9.681282,0.04701 11.153119,0.42635 2.040663,0.525884 3.503041,1.317757 4.772536,2.584224 2.390606,2.38502 3.253623,6.779099 1.949259,9.924739 -0.416967,1.00551 -1.9149,2.60645 -2.924228,3.1253 l -0.825002,0.42409 1.129345,0.62203 c 1.49711,0.8246 2.321631,1.66032 3.111865,3.15426 0.74744,1.41305 1.121653,2.93581 1.119587,4.50691 -0.0016,1.23914 -0.237329,2.50835 -0.708591,3.77752 -0.970479,2.61364 -3.754377,4.65452 -7.376324,5.40771 -1.718382,0.35731 -2.919894,0.39942 -11.475099,0.40187 l -9.555761,0.002 0.01186,-0.86662 c 0.0088,-0.62745 0.134859,-0.96106 0.457492,-1.20884 0.245091,-0.18826 1.24734,-1.14968 2.227219,-2.13656 1.379681,-1.38957 2.003314,-2.22226 2.764402,-3.69112 l 0.982818,-1.89677 0.0069,1.9664 0.0069,1.96633 6.01322,-0.0779 c 5.676538,-0.0735 6.080734,-0.10506 7.219122,-0.56016 2.738975,-1.09531 3.69802,-2.9607 2.681653,-5.21586 -0.454361,-1.00816 -1.31648,-1.72629 -3.059772,-2.54884 l -1.246073,-0.58795 h -5.6139 -5.613898 l -0.581575,2.32238 c -1.561661,6.23605 -5.199591,10.14933 -11.093154,11.93283 -1.497551,0.45316 -1.964551,0.47815 -10.300913,0.55129 l -8.7322485,0.0769 z M 22.545911,119.8923 c 2.082117,-0.40145 3.61542,-1.12756 4.95417,-2.34616 2.158306,-1.96458 3.154547,-4.26984 3.322343,-7.68767 0.285118,-5.80753 -2.509182,-10.155148 -7.386468,-11.492459 -1.358017,-0.372366 -8.247754,-0.682274 -9.577942,-0.430808 l -0.759608,0.143676 v 11.054861 11.05485 h 3.955563 c 2.529588,0 4.509416,-0.1066 5.491942,-0.2962 z"
       id="path1615-3-6"
       inkscape:connector-curvature="0"
       sodipodi:nodetypes="cccccsccccccscccccccccccccccsccccccccccccccsccccccccccscccccscc"
       inkscape:export-filename="../486834f9/logo.svg"
       inkscape:export-xdpi="44.310001"
       inkscape:export-ydpi="44.310001" />
  </g>
</svg>
